# Blender 3.3.1
# www.blender.org
mtllib ball.mtl
o Cube
v 0.817772 0.817772 -0.817771
v 0.817772 -0.817771 -0.817771
v 0.817772 0.817772 0.817771
v 0.817772 -0.817771 0.817772
v -0.817771 0.817772 -0.817771
v -0.817771 -0.817771 -0.817771
v -0.817771 0.817772 0.817772
v -0.817771 -0.817771 0.817772
v 0.000000 -1.001561 -1.001561
v 0.000000 1.001562 1.001561
v 0.000000 -1.001561 1.001561
v 0.000000 1.001562 -1.001561
v -1.001561 -1.001561 0.000000
v 1.001561 1.001562 -0.000000
v -1.001561 1.001562 0.000000
v 1.001561 -1.001561 0.000000
v 0.000000 -1.416422 0.000000
v 0.000000 1.416422 0.000000
v 1.001561 0.000000 -1.001561
v -1.001561 0.000000 1.001561
v 1.001561 0.000000 1.001561
v -1.001561 0.000000 -1.001561
v 0.000000 0.000000 -1.416422
v 0.000000 0.000000 1.416422
v 1.416422 0.000000 0.000000
v -1.416422 0.000000 0.000000
vn -0.3251 0.8881 0.3251
vn -0.3251 0.3251 0.8881
vn -0.8881 0.3251 -0.3251
vn 0.3251 -0.8881 0.3251
vn 0.8881 0.3251 0.3251
vn 0.3251 0.3251 -0.8881
vn -0.3251 0.3251 -0.8881
vn -0.3251 -0.8881 0.3251
vn 0.3251 0.3251 0.8881
vn 0.3251 0.8881 0.3251
vn 0.3251 0.8881 -0.3251
vn -0.3251 -0.8881 -0.3251
vn 0.8881 0.3251 -0.3251
vn 0.3251 -0.8881 -0.3251
vn -0.8881 0.3251 0.3251
vn -0.3251 0.8881 -0.3251
vn -0.8881 -0.3251 0.3251
vn 0.8881 -0.3251 -0.3251
vn 0.3251 -0.3251 0.8881
vn -0.3251 -0.3251 -0.8881
vn 0.3251 -0.3251 -0.8881
vn 0.8881 -0.3251 0.3251
vn -0.8881 -0.3251 -0.3251
vn -0.3251 -0.3251 0.8881
vt 0.625000 0.500000
vt 0.375000 0.500000
vt 0.625000 0.750000
vt 0.375000 0.750000
vt 0.625000 0.250000
vt 0.875000 0.500000
vt 0.125000 0.500000
vt 0.375000 0.250000
vt 0.875000 0.750000
vt 0.625000 1.000000
vt 0.625000 0.000000
vt 0.125000 0.750000
vt 0.375000 0.000000
vt 0.375000 1.000000
vt 0.250000 0.500000
vt 0.375000 0.375000
vt 0.625000 0.875000
vt 0.750000 0.750000
vt 0.250000 0.750000
vt 0.375000 0.875000
vt 0.625000 0.375000
vt 0.750000 0.500000
vt 0.125000 0.625000
vt 0.375000 0.125000
vt 0.625000 0.625000
vt 0.625000 0.125000
vt 0.875000 0.625000
vt 0.375000 0.625000
vt 0.250000 0.625000
vt 0.750000 0.625000
vt 0.500000 0.500000
vt 0.500000 0.000000
vt 0.500000 1.000000
vt 0.500000 0.750000
vt 0.500000 0.250000
vt 0.500000 0.375000
vt 0.500000 0.875000
vt 0.500000 0.625000
vt 0.500000 0.125000
s 0
usemtl Material
f 18/30/1 15/27/1 7/9/1 10/18/1
f 24/37/2 10/17/2 7/10/2 20/33/2
f 26/39/3 15/26/3 5/5/3 22/35/3
f 17/29/4 16/28/4 4/4/4 11/19/4
f 25/38/5 14/25/5 3/3/5 21/34/5
f 23/36/6 12/21/6 1/1/6 19/31/6
f 22/35/7 5/5/7 12/21/7 23/36/7
f 13/23/8 17/29/8 11/19/8 8/12/8
f 21/34/9 3/3/9 10/17/9 24/37/9
f 14/25/10 18/30/10 10/18/10 3/3/10
f 1/1/11 12/22/11 18/30/11 14/25/11
f 6/7/12 9/15/12 17/29/12 13/23/12
f 19/31/13 1/1/13 14/25/13 25/38/13
f 9/15/14 2/2/14 16/28/14 17/29/14
f 20/32/15 7/11/15 15/26/15 26/39/15
f 12/22/16 5/6/16 15/27/16 18/30/16
f 8/13/17 20/32/17 26/39/17 13/24/17
f 2/2/18 19/31/18 25/38/18 16/28/18
f 4/4/19 21/34/19 24/37/19 11/20/19
f 6/8/20 22/35/20 23/36/20 9/16/20
f 9/16/21 23/36/21 19/31/21 2/2/21
f 16/28/22 25/38/22 21/34/22 4/4/22
f 13/24/23 26/39/23 22/35/23 6/8/23
f 11/20/24 24/37/24 20/33/24 8/14/24
