# Blender 3.3.1
# www.blender.org
mtllib cannon.mtl
o Cube
v 3.849279 -3.837440 -0.402166
v 7.287848 -7.287848 7.287848
v 3.846299 3.847297 -0.402221
v 7.287848 7.287848 7.287848
v -3.846299 -3.847297 -0.402263
v -7.287848 -7.287848 7.287848
v -3.849279 3.837440 -0.402315
v -7.287848 7.287848 7.287848
v 7.287848 -7.287848 0.000000
v -7.287848 7.287848 -0.000000
v 7.287848 7.287848 -0.000000
v -7.287848 -7.287848 0.000000
v 0.000000 -7.287848 7.287848
v -0.000225 4.705341 -2.123648
v 0.000000 7.287848 7.287848
v 0.000225 -4.705341 -2.123640
v 0.000000 -7.287848 0.000000
v 0.000000 7.287848 -0.000000
v -3.643924 -7.287848 7.287848
v -3.643190 4.707062 -2.123631
v -3.643924 7.287848 -0.000000
v -3.643924 7.287848 7.287848
v -3.642740 -4.703620 -2.123624
v -3.643924 -7.287848 0.000000
v 3.643924 7.287848 7.287848
v 3.643190 -4.707062 -2.123655
v 3.643924 -7.287848 0.000000
v 3.643924 -7.287848 7.287848
v 4.485498 4.656266 -2.593846
v 3.643924 7.287848 -0.000000
v -7.287848 0.000000 7.287848
v 4.706160 0.000743 -2.123635
v -4.706160 -0.000743 -2.123652
v 7.287848 0.000000 7.287848
v 7.287848 0.000000 0.000000
v -7.287848 0.000000 0.000000
v 0.000000 0.000000 7.287848
v 3.881219 0.472147 -7.287848
v -3.643924 0.000000 7.287848
v -3.909826 0.006343 -7.287787
v 3.909826 -0.006344 -7.287910
v 3.643924 0.000000 7.287848
v -4.706679 -3.645602 -2.123658
v 7.287848 -3.643924 7.287848
v -7.287848 -3.643924 0.000000
v -7.287848 -3.643924 7.287848
v 4.705639 -3.644116 -2.123646
v 7.287848 -3.643924 0.000000
v 0.000000 -3.643924 7.287848
v -0.001915 -3.909831 -7.287881
v -3.643924 -3.643924 7.287848
v -2.765122 -2.764215 -7.287828
v 2.759282 -2.770044 -7.287914
v 3.643924 -3.643924 7.287848
v -7.287848 3.643924 7.287848
v 4.706679 3.645602 -2.123627
v 7.287848 3.643924 -0.000000
v 0.000000 3.643924 7.287848
v 0.001915 3.909831 -7.287815
v -3.643924 3.643924 7.287848
v -2.759282 2.770044 -7.287782
v 2.765122 2.764215 -7.287868
v 3.643924 3.643924 7.287848
v -4.705639 3.644116 -2.123640
v 7.287848 3.643924 7.287848
v -7.287848 3.643924 -0.000000
v 5.130340 6.292912 -6.295305
v -4.705899 1.821686 -2.123646
v 7.287848 1.821962 7.287848
v -7.287848 1.821962 -0.000000
v -7.287848 1.821962 7.287848
v 4.706419 1.823172 -2.123631
v 7.287848 1.821962 -0.000000
v 0.000000 1.821962 7.287848
v 1.941567 2.190989 -7.287831
v -3.643924 1.821962 7.287848
v -3.334554 1.388193 -7.287785
v 3.337474 1.378935 -7.287889
v 3.643924 1.821962 7.287848
v -7.287848 -1.821962 7.287848
v 4.705899 -1.821687 -2.123641
v 7.287848 -1.821962 0.000000
v 0.000000 -1.821962 7.287848
v 1.939652 -1.718842 -7.287865
v -3.643924 -1.821962 7.287848
v -3.337474 -1.378936 -7.287807
v 3.334554 -1.388194 -7.287912
v 3.643924 -1.821962 7.287848
v -4.706419 -1.823173 -2.123655
v 7.287848 -1.821962 7.287848
v -7.287848 -1.821962 0.000000
v 5.465886 7.287848 7.287848
v 3.746235 -4.272251 -1.262911
v 5.465886 -7.287848 0.000000
v 5.465886 -7.287848 7.287848
v 4.165898 4.251781 -1.498033
v 5.465886 7.287848 -0.000000
v 5.465886 0.000000 7.287848
v 5.465886 -3.643924 7.287848
v 3.732460 -3.207080 -4.705780
v 3.735901 3.204908 -4.705748
v 5.465886 3.643924 7.287848
v 5.465886 1.821962 7.287848
v 4.021947 1.601054 -4.705760
v 5.465886 -1.821962 7.287848
v 4.020226 -1.604940 -4.705776
v 6.355682 7.287848 7.287848
v 3.796559 -4.059901 -0.842547
v 6.355682 -7.287848 0.000000
v 4.502447 -0.001070 -3.444729
v 4.207734 -3.420516 -3.444737
v 4.210002 3.420130 -3.444712
v 4.356225 1.709530 -3.444720
v 4.355090 -1.710793 -3.444733
v 6.355682 -7.287848 7.287848
v 4.009815 4.054243 -0.962869
v 6.355682 7.287848 -0.000000
v 6.355682 0.000000 7.287848
v 6.355682 -3.643924 7.287848
v 6.355682 3.643924 7.287848
v 6.355682 1.821962 7.287848
v 6.355682 -1.821962 7.287848
v 4.554905 -7.287848 7.287848
v 4.325698 4.454024 -2.045939
v 4.554905 7.287848 -0.000000
v 4.554905 0.000000 7.287848
v 4.554905 -3.643924 7.287848
v 4.554905 3.643924 7.287848
v 4.554905 1.821962 7.287848
v 4.554905 -1.821962 7.287848
v 4.554905 7.287848 7.287848
v 3.694713 -4.489656 -1.693283
v 4.554905 -7.287848 0.000000
v 4.108910 -0.004572 -5.996841
v 3.245872 -2.988562 -5.996847
v 3.250511 2.984561 -5.996808
v 3.679710 1.489995 -5.996824
v 3.677390 -1.496567 -5.996844
v 16.053406 -0.010136 -7.259689
v 15.767360 1.593718 -7.259676
v 15.765639 -1.612276 -7.259693
v 16.247860 -0.008406 -5.998645
v 16.101637 1.702195 -5.998637
v 16.100502 -1.718129 -5.998650
v 15.854322 -0.011908 -8.550758
v 15.425123 1.482659 -8.550741
v 15.422803 -1.503903 -8.550760
vn -0.6905 0.6902 -0.2163
vn -0.4290 0.1298 -0.8939
vn -0.1298 -0.4292 -0.8938
vn -0.0000 -0.0000 1.0000
vn 0.1298 0.4292 -0.8939
vn 0.3717 0.1635 -0.9138
vn -0.0000 -1.0000 -0.0000
vn 1.0000 -0.0000 -0.0000
vn -1.0000 -0.0000 -0.0000
vn -0.0000 1.0000 -0.0000
vn -0.0002 -0.6350 -0.7725
vn -0.0390 0.6669 -0.7441
vn 0.1381 0.9492 -0.2828
vn -0.4289 -0.1298 -0.8940
vn 0.0001 0.6353 -0.7723
vn -0.1687 0.9492 -0.2656
vn 0.9209 -0.3556 -0.1596
vn 0.5804 0.5638 -0.5876
vn -0.0002 -0.6353 -0.7723
vn 0.9233 -0.3235 -0.2071
vn -0.0000 -0.0000 -1.0000
vn -0.0001 0.0001 -1.0000
vn 0.6352 -0.0000 -0.7723
vn -0.6353 -0.0000 -0.7723
vn -0.9627 -0.1717 -0.2093
vn -0.6883 -0.6922 -0.2170
vn 0.1287 -0.4297 -0.8938
vn 0.1687 -0.9492 -0.2656
vn -0.1700 -0.9490 -0.2657
vn 0.8695 -0.4122 -0.2721
vn -0.6353 -0.0000 -0.7722
vn -0.1288 0.4297 -0.8938
vn 0.8929 0.3105 -0.3260
vn 0.6353 -0.0000 -0.7722
vn -0.9323 0.1674 -0.3207
vn -0.9625 0.1729 -0.2091
vn 0.6353 -0.0000 -0.7723
vn -0.0003 -0.0002 -1.0000
vn 0.9239 0.3213 -0.2077
vn -0.6352 -0.0000 -0.7723
vn -0.9326 -0.1663 -0.3203
vn 0.8922 -0.3125 -0.3261
vn 0.9401 -0.1235 -0.3176
vn 0.2124 -0.0183 0.9770
vn 0.9404 0.1226 -0.3172
vn 0.5865 -0.7888 -0.1839
vn -0.0170 0.9966 -0.0812
vn 0.5852 -0.0222 -0.8106
vn 0.8902 0.4259 -0.1618
vn 0.4412 -0.2434 -0.8638
vn 0.4016 0.9123 -0.0801
vn 0.5150 -0.2810 -0.8098
vn 0.9775 -0.0409 -0.2068
vn 0.3007 -0.9490 -0.0946
vn 0.9501 0.0393 -0.3096
vn 0.9776 0.0404 -0.2067
vn 0.9499 -0.0397 -0.3101
vn 0.4126 -0.0243 -0.9106
vn 0.4466 -0.4691 -0.7619
vn 0.9217 -0.2143 -0.3232
vn -0.0178 -0.9967 -0.0789
vn 0.9222 0.2129 -0.3229
vn 0.7708 -0.5895 -0.2413
vn -0.2120 0.0613 -0.9753
vn 0.6138 0.2847 -0.7364
vn 0.9804 -0.0953 -0.1726
vn 0.9697 0.1265 -0.2088
vn 0.9696 -0.1274 -0.2088
vn 0.9528 0.2199 -0.2094
vn 0.9525 -0.2214 -0.2090
vn -0.2121 -0.0609 -0.9753
vn 0.2125 0.0182 0.9770
vt 0.625000 0.500000
vt 0.375000 0.500000
vt 0.625000 0.750000
vt 0.375000 0.750000
vt 0.625000 0.250000
vt 0.875000 0.500000
vt 0.375000 0.250000
vt 0.125000 0.500000
vt 0.875000 0.750000
vt 0.625000 1.000000
vt 0.625000 0.000000
vt 0.375000 1.000000
vt 0.125000 0.750000
vt 0.375000 0.000000
vt 0.500000 0.500000
vt 0.500000 1.000000
vt 0.500000 0.000000
vt 0.500000 0.750000
vt 0.500000 0.250000
vt 0.375000 0.375000
vt 0.250000 0.500000
vt 0.625000 0.875000
vt 0.750000 0.750000
vt 0.375000 0.875000
vt 0.250000 0.750000
vt 0.625000 0.375000
vt 0.750000 0.500000
vt 0.500000 0.375000
vt 0.500000 0.875000
vt 0.375000 0.312500
vt 0.187500 0.500000
vt 0.625000 0.937500
vt 0.812500 0.750000
vt 0.500000 0.937500
vt 0.187500 0.750000
vt 0.375000 0.937500
vt 0.625000 0.312500
vt 0.812500 0.500000
vt 0.500000 0.312500
vt 0.375000 0.812500
vt 0.312500 0.750000
vt 0.687500 0.500000
vt 0.625000 0.437500
vt 0.500000 0.437500
vt 0.375000 0.437500
vt 0.312500 0.500000
vt 0.687500 0.750000
vt 0.625000 0.812500
vt 0.500000 0.812500
vt 0.125000 0.625000
vt 0.375000 0.125000
vt 0.625000 0.625000
vt 0.875000 0.625000
vt 0.625000 0.125000
vt 0.375000 0.625000
vt 0.500000 0.625000
vt 0.500000 0.125000
vt 0.250000 0.625000
vt 0.750000 0.625000
vt 0.187500 0.625000
vt 0.812500 0.625000
vt 0.687500 0.625000
vt 0.312500 0.625000
vt 0.625000 0.187500
vt 0.875000 0.562500
vt 0.375000 0.562500
vt 0.500000 0.187500
vt 0.375000 0.187500
vt 0.125000 0.562500
vt 0.625000 0.562500
vt 0.500000 0.562500
vt 0.250000 0.562500
vt 0.750000 0.562500
vt 0.187500 0.562500
vt 0.812500 0.562500
vt 0.687500 0.562500
vt 0.312500 0.562500
vt 0.125000 0.687500
vt 0.375000 0.062500
vt 0.625000 0.687500
vt 0.500000 0.687500
vt 0.250000 0.687500
vt 0.750000 0.687500
vt 0.187500 0.687500
vt 0.812500 0.687500
vt 0.687500 0.687500
vt 0.312500 0.687500
vt 0.875000 0.687500
vt 0.625000 0.062500
vt 0.375000 0.687500
vt 0.500000 0.062500
vt 0.875000 0.656250
vt 0.625000 0.093750
vt 0.375000 0.656250
vt 0.500000 0.093750
vt 0.125000 0.656250
vt 0.375000 0.093750
vt 0.625000 0.656250
vt 0.500000 0.656250
vt 0.250000 0.656250
vt 0.750000 0.656250
vt 0.187500 0.656250
vt 0.812500 0.656250
vt 0.687500 0.656250
vt 0.312500 0.656250
vt 0.375000 0.156250
vt 0.125000 0.593750
vt 0.625000 0.593750
vt 0.500000 0.593750
vt 0.250000 0.593750
vt 0.750000 0.593750
vt 0.187500 0.593750
vt 0.812500 0.593750
vt 0.687500 0.593750
vt 0.312500 0.593750
vt 0.625000 0.156250
vt 0.875000 0.593750
vt 0.375000 0.593750
vt 0.500000 0.156250
vt 0.343750 0.750000
vt 0.375000 0.781250
vt 0.625000 0.468750
vt 0.656250 0.500000
vt 0.500000 0.468750
vt 0.343750 0.500000
vt 0.375000 0.468750
vt 0.625000 0.781250
vt 0.656250 0.750000
vt 0.500000 0.781250
vt 0.343750 0.625000
vt 0.343750 0.562500
vt 0.656250 0.562500
vt 0.656250 0.687500
vt 0.343750 0.687500
vt 0.343750 0.656250
vt 0.656250 0.656250
vt 0.343750 0.593750
vt 0.656250 0.593750
vt 0.375000 0.765988
vt 0.359012 0.750000
vt 0.640988 0.500000
vt 0.625000 0.484012
vt 0.500000 0.484012
vt 0.640988 0.625000
vt 0.640988 0.562500
vt 0.640988 0.687500
vt 0.640988 0.656250
vt 0.640988 0.593750
vt 0.359012 0.500000
vt 0.375000 0.484012
vt 0.640988 0.750000
vt 0.625000 0.765988
vt 0.500000 0.765988
vt 0.359012 0.625000
vt 0.359012 0.562500
vt 0.359012 0.687500
vt 0.359012 0.656250
vt 0.359012 0.593750
vt 0.375000 0.453125
vt 0.328125 0.500000
vt 0.625000 0.796875
vt 0.671875 0.750000
vt 0.500000 0.796875
vt 0.328125 0.625000
vt 0.328125 0.562500
vt 0.328125 0.687500
vt 0.328125 0.656250
vt 0.328125 0.593750
vt 0.328125 0.750000
vt 0.375000 0.796875
vt 0.625000 0.453125
vt 0.671875 0.500000
vt 0.500000 0.453125
vt 0.671875 0.625000
vt 0.671875 0.562500
vt 0.671875 0.687500
vt 0.671875 0.656250
vt 0.671875 0.593750
vt 0.656250 0.625000
vt 0.656250 0.656250
vt 0.656250 0.593750
vt 0.640988 0.625000
vt 0.640988 0.656250
vt 0.640988 0.593750
vt 0.671875 0.625000
vt 0.671875 0.656250
vt 0.671875 0.593750
s 0
usemtl Material
f 61/85/1 64/88/1 7/9/1 20/33/1
f 21/34/2 20/32/2 7/10/2 10/16/2
f 45/67/3 43/64/3 5/5/3 12/19/3
f 120/156/4 65/90/4 4/4/4 107/140/4
f 57/81/5 56/80/5 3/3/5 11/18/5
f 109/143/6 108/142/6 1/1/6 9/15/6
f 115/150/7 109/143/7 9/15/7 2/2/7
f 65/90/8 57/81/8 11/18/8 4/4/8
f 46/68/9 45/67/9 12/19/9 6/7/9
f 22/36/10 21/34/10 10/16/10 8/12/10
f 25/40/10 30/49/10 18/29/10 15/24/10
f 19/30/7 24/39/7 17/28/7 13/20/7
f 24/39/11 23/37/11 16/26/11 17/28/11
f 60/84/4 58/82/4 15/25/4 22/35/4
f 30/49/12 29/48/12 14/22/12 18/29/12
f 62/86/13 59/83/13 14/23/13 29/47/13
f 55/78/4 60/84/4 22/35/4 8/13/4
f 12/19/14 5/5/14 23/37/14 24/39/14
f 6/7/7 12/19/7 24/39/7 19/30/7
f 15/24/10 18/29/10 21/34/10 22/36/10
f 18/29/15 14/22/15 20/32/15 21/34/15
f 59/83/16 61/85/16 20/33/16 14/23/16
f 136/176/17 62/86/17 29/47/17 124/162/17
f 125/163/18 124/161/18 29/48/18 30/49/18
f 131/170/10 125/163/10 30/49/10 25/40/10
f 13/20/7 17/28/7 27/44/7 28/45/7
f 17/28/19 16/26/19 26/43/19 27/44/19
f 58/82/4 63/87/4 25/41/4 15/25/4
f 83/110/4 88/115/4 42/63/4 37/58/4
f 138/178/20 87/114/20 41/62/20 134/174/20
f 84/111/21 86/113/21 40/61/21 38/59/21
f 80/107/4 85/112/4 39/60/4 31/50/4
f 87/114/22 84/111/22 38/59/22 41/62/22
f 85/112/4 83/110/4 37/58/4 39/60/4
f 71/97/9 70/95/9 36/57/9 31/51/9
f 90/118/8 82/109/8 35/56/8 34/55/8
f 82/109/23 81/108/23 32/52/23 35/56/23
f 122/158/4 90/118/4 34/55/4 118/154/4
f 70/95/24 68/93/24 33/54/24 36/57/24
f 86/113/25 89/117/25 33/53/25 40/61/25
f 23/38/26 5/6/26 43/65/26 52/75/26
f 115/149/4 2/2/4 44/66/4 119/155/4
f 9/15/27 1/1/27 47/70/27 48/71/27
f 2/2/8 9/15/8 48/71/8 44/66/8
f 19/31/4 13/21/4 49/72/4 51/74/4
f 26/42/28 16/27/28 50/73/28 53/76/28
f 6/8/4 19/31/4 51/74/4 46/69/4
f 16/27/29 23/38/29 52/75/29 50/73/29
f 132/172/30 26/42/30 53/76/30 135/175/30
f 13/21/4 28/46/4 54/77/4 49/72/4
f 80/106/9 91/119/9 45/67/9 46/68/9
f 91/119/31 89/116/31 43/64/31 45/67/31
f 10/17/32 7/11/32 64/89/32 66/91/32
f 8/14/9 10/17/9 66/91/9 55/79/9
f 74/100/4 79/105/4 63/87/4 58/82/4
f 137/177/33 78/104/33 62/86/33 136/176/33
f 75/101/21 77/103/21 61/85/21 59/83/21
f 71/96/4 76/102/4 60/84/4 55/78/4
f 78/104/21 75/101/21 59/83/21 62/86/21
f 76/102/4 74/100/4 58/82/4 60/84/4
f 69/94/8 73/99/8 57/81/8 65/90/8
f 73/99/34 72/98/34 56/80/34 57/81/34
f 121/157/4 69/94/4 65/90/4 120/156/4
f 77/103/35 68/92/35 64/88/35 61/85/35
f 40/61/36 33/53/36 68/92/36 77/103/36
f 118/154/4 34/55/4 69/94/4 121/157/4
f 35/56/37 32/52/37 72/98/37 73/99/37
f 34/55/8 35/56/8 73/99/8 69/94/8
f 39/60/4 37/58/4 74/100/4 76/102/4
f 41/62/38 38/59/38 75/101/38 78/104/38
f 31/50/4 39/60/4 76/102/4 71/96/4
f 38/59/21 40/61/21 77/103/21 75/101/21
f 134/174/39 41/62/39 78/104/39 137/177/39
f 37/58/4 42/63/4 79/105/4 74/100/4
f 66/91/40 64/89/40 68/93/40 70/95/40
f 55/79/9 66/91/9 70/95/9 71/97/9
f 36/57/24 33/54/24 89/116/24 91/119/24
f 31/51/9 36/57/9 91/119/9 80/106/9
f 52/75/41 43/65/41 89/117/41 86/113/41
f 119/155/4 44/66/4 90/118/4 122/158/4
f 48/71/23 47/70/23 81/108/23 82/109/23
f 44/66/8 48/71/8 82/109/8 90/118/8
f 51/74/4 49/72/4 83/110/4 85/112/4
f 53/76/21 50/73/21 84/111/21 87/114/21
f 46/69/4 51/74/4 85/112/4 80/107/4
f 50/73/21 52/75/21 86/113/21 84/111/21
f 135/175/42 53/76/42 87/114/42 138/178/42
f 49/72/4 54/77/4 88/115/4 83/110/4
f 111/145/43 100/132/43 106/138/43 114/148/43
f 127/165/4 99/131/4 105/137/4 130/168/4
f 110/144/44 114/148/44 144/184/44 142/182/44
f 126/164/4 98/130/4 103/135/4 129/167/4
f 129/167/4 103/135/4 102/134/4 128/166/4
f 113/147/45 104/136/45 101/133/45 112/146/45
f 108/141/46 93/123/46 100/132/46 111/145/46
f 123/160/4 95/125/4 99/131/4 127/165/4
f 130/168/4 105/137/4 98/130/4 126/164/4
f 137/177/47 104/136/47 140/180/47 146/186/47
f 107/139/10 117/153/10 97/129/10 92/121/10
f 117/153/48 116/152/48 96/127/48 97/129/48
f 112/146/49 101/133/49 96/128/49 116/151/49
f 123/159/7 133/173/7 94/124/7 95/126/7
f 133/173/50 132/171/50 93/122/50 94/124/50
f 128/166/4 102/134/4 92/120/4 131/169/4
f 56/80/51 112/146/51 116/151/51 3/3/51
f 11/18/52 3/3/52 116/152/52 117/153/52
f 4/4/10 11/18/10 117/153/10 107/139/10
f 81/108/53 114/148/53 110/144/53 32/52/53
f 1/1/54 108/141/54 111/145/54 47/70/54
f 72/98/55 113/147/55 112/146/55 56/80/55
f 32/52/56 110/144/56 113/147/56 72/98/56
f 47/70/57 111/145/57 114/148/57 81/108/57
f 99/131/4 119/155/4 122/158/4 105/137/4
f 98/130/4 118/154/4 121/157/4 103/135/4
f 103/135/4 121/157/4 120/156/4 102/134/4
f 95/125/4 115/149/4 119/155/4 99/131/4
f 105/137/4 122/158/4 118/154/4 98/130/4
f 95/126/7 94/124/7 109/143/7 115/150/7
f 94/124/58 93/122/58 108/142/58 109/143/58
f 102/134/4 120/156/4 107/140/4 92/120/4
f 63/87/4 128/166/4 131/169/4 25/41/4
f 27/44/59 26/43/59 132/171/59 133/173/59
f 28/45/7 27/44/7 133/173/7 123/159/7
f 88/115/4 130/168/4 126/164/4 42/63/4
f 28/46/4 123/160/4 127/165/4 54/77/4
f 79/105/4 129/167/4 128/166/4 63/87/4
f 42/63/4 126/164/4 129/167/4 79/105/4
f 54/77/4 127/165/4 130/168/4 88/115/4
f 100/132/60 135/175/60 138/178/60 106/138/60
f 106/138/61 138/178/61 147/187/61 141/181/61
f 104/136/62 137/177/62 136/176/62 101/133/62
f 93/123/63 132/172/63 135/175/63 100/132/63
f 138/178/64 134/174/64 145/185/64 147/187/64
f 92/121/10 97/129/10 125/163/10 131/170/10
f 97/129/65 96/127/65 124/161/65 125/163/65
f 101/133/66 136/176/66 124/162/66 96/128/66
f 142/182/67 139/179/67 140/180/67 143/183/67
f 144/184/68 141/181/68 139/179/68 142/182/68
f 139/179/69 145/185/69 146/186/69 140/180/69
f 141/181/70 147/187/70 145/185/70 139/179/70
f 104/136/47 113/147/47 143/183/47 140/180/47
f 134/174/71 137/177/71 146/186/71 145/185/71
f 113/147/72 110/144/72 142/182/72 143/183/72
f 114/148/61 106/138/61 141/181/61 144/184/61
l 29 67
